HIERARCHY
ROOT Hips
{
	OFFSET 0.00000 0.00000 0.00000
	CHANNELS 6 Xposition Yposition Zposition Zrotation Yrotation Xrotation 
	JOINT LHipJoint
	{
		OFFSET 0 0 0
		CHANNELS 3 Zrotation Yrotation Xrotation
		JOINT LeftHip
		{
			OFFSET 1.55766 -1.60504 1.11378
			CHANNELS 3 Zrotation Yrotation Xrotation
			JOINT LeftKnee
			{
				OFFSET 2.29047 -6.29302 0.00000
				CHANNELS 3 Zrotation Yrotation Xrotation
				JOINT LeftAnkle
				{
					OFFSET 2.52265 -6.93093 0.00000
					CHANNELS 3 Zrotation Yrotation Xrotation
					JOINT LeftToe
					{
						OFFSET 0.17633 -0.48446 2.02656
						CHANNELS 3 Zrotation Yrotation Xrotation
						End Site
						{
							OFFSET 0.00000 -0.00000 1.04989
						}
					}
				}
			}
		}
	}
	JOINT RHipJoint
	{
		OFFSET 0 0 0
		CHANNELS 3 Zrotation Yrotation Xrotation
		JOINT RightHip
		{
			OFFSET -1.48599 -1.60504 1.11378
			CHANNELS 3 Zrotation Yrotation Xrotation
			JOINT RightKnee
			{
				OFFSET -2.27280 -6.24448 0.00000
				CHANNELS 3 Zrotation Yrotation Xrotation
				JOINT RightAnkle
				{
					OFFSET -2.50834 -6.89161 0.00000
					CHANNELS 3 Zrotation Yrotation Xrotation
					JOINT RightToe
					{
						OFFSET -0.26967 -0.74090 2.08741
						CHANNELS 3 Zrotation Yrotation Xrotation
						End Site
						{
							OFFSET -0.00000 -0.00000 1.10614
						}
					}
				}
			}
		}
	}
	JOINT lowerback
	{
		OFFSET 0 0 0
		CHANNELS 3 Zrotation Yrotation Xrotation
		JOINT Chest
		{
			OFFSET 0.06481 2.02437 -0.08472
			CHANNELS 3 Zrotation Yrotation Xrotation
			JOINT Chest2
			{
				OFFSET 0.00015 1.96711 0.18069
				CHANNELS 3 Zrotation Yrotation Xrotation
				JOINT lowerneck
				{
					OFFSET 0 0 0
					CHANNELS 3 Zrotation Yrotation Xrotation
					JOINT Neck
					{
						OFFSET -0.29961 1.68293 -0.13041
						CHANNELS 3 Zrotation Yrotation Xrotation
						JOINT Head
						{
							OFFSET 0.59697 1.61501 -0.14669
							CHANNELS 3 Zrotation Yrotation Xrotation
							End Site
							{
								OFFSET 0.22973 1.74906 -0.10148
							}
						}
					}
				}
				JOINT LeftCollar
				{
					OFFSET 0 0 0
					CHANNELS 3 Zrotation Yrotation Xrotation
					JOINT LeftShoulder
					{
						OFFSET 3.37968 1.02893 0.31147
CHANNELS 3 Zrotation Xrotation Yrotation
						JOINT LeftElbow
						{
OFFSET 0 -5.198070 -0.000000
CHANNELS 3 Zrotation Xrotation Yrotation
							JOINT LeftWrist
							{
OFFSET 0 -3.093700 -0.000000
CHANNELS 3 Zrotation Xrotation Yrotation
								JOINT lhand
								{
									OFFSET 0 0 0
CHANNELS 3 Zrotation Xrotation Yrotation
									JOINT LFingers
									{
OFFSET 0 -0.672630 -0.000000
CHANNELS 3 Zrotation Xrotation Yrotation
										End Site
										{
OFFSET 0 -0.542290 -0.000000
										}
									}
								}
								JOINT LThumb
								{
OFFSET 0 0.000000 0.000000
CHANNELS 3 Zrotation Xrotation Yrotation
									End Site
									{
OFFSET 0 -0.550570 0.550570
									}
								}
							}
						}
					}
				}
				JOINT RightCollar
				{
					OFFSET 0 0 0
					CHANNELS 3 Zrotation Yrotation Xrotation
					JOINT RightShoulder
					{
						OFFSET -3.38254 0.96355 -0.16120
CHANNELS 3 Zrotation Xrotation Yrotation
						JOINT RightElbow
						{
OFFSET 0 -5.452220 -0.000000
CHANNELS 3 Zrotation Xrotation Yrotation
							JOINT RightWrist
							{
OFFSET 0 -3.012840 -0.000000
CHANNELS 3 Zrotation Xrotation Yrotation
								JOINT rhand
								{
									OFFSET 0 0 0
CHANNELS 3 Zrotation Xrotation Yrotation
									JOINT RFingers
									{
OFFSET 0 -0.622300 -0.000000
CHANNELS 3 Zrotation Xrotation Yrotation
										End Site
										{
OFFSET 0 -0.501710 -0.000000
										}
									}
								}
								JOINT RThumb
								{
OFFSET 0 0.000000 0.000000
CHANNELS 3 Zrotation Xrotation Yrotation
									End Site
									{
OFFSET 0 -0.509370 0.509370
									}
								}
							}
						}
					}
				}
			}
		}
	}
}
MOTION
Frames: 4
Frame Time: 0.008333333333333333
6.378600 15.814500 14.067800 -8.378400 -16.701000 17.224500 0.000000 0.000000 0.000000 -14.119000 2.903100 -34.315100 5.169400 13.572000 41.549400 1.375700 -14.756800 -21.954800 0.413400 -4.127200 -11.434700 0.000000 0.000000 0.000000 29.485700 -1.454800 -32.672700 -3.824800 -11.923600 35.462100 1.921800 31.474400 -10.785300 -0.076700 -1.786700 4.916600 6.427000 1.884500 -13.231600 0.045900 1.739000 -8.635500 -3.358900 0.585600 -1.526900 -30.336000 -13.244500 37.846200 44.544900 -27.805800 -14.983600 23.694800 -18.493100 1.889900 0.000000 -0.000000 0.000000 2.892900 15.256200 -34.599000 16.893200 -26.716800 4.039200 17.436300 -35.854400 8.250000 0.000000 0.000000 0.000000 -7.125000 0.000000 0.000000 -6.816900 21.362900 -3.892400 0.000000 -0.000000 0.000000 1.644800 7.203300 35.060700 -12.038900 -19.863000 -2.115500 -7.447400 26.971300 1.126700 0.000000 0.000000 0.000000 7.125000 0.000000 -0.000000 15.110300 30.896200 5.374200
6.374720 15.813839 14.065299 -8.326853 -16.501604 17.263153 0.000000 0.000000 0.000000 -14.144662 3.000349 -34.459062 5.165599 13.567899 41.533278 1.339476 -15.207030 -21.827368 0.393637 -4.028547 -11.157002 0.000000 0.000000 0.000000 29.453047 -1.348799 -32.730547 -3.839343 -11.943504 35.532514 1.837020 31.190513 -11.029156 -0.067338 -1.674054 4.605587 6.315906 1.783611 -13.079415 0.104866 1.631433 -8.692683 -3.251348 0.531676 -1.682929 -30.450721 -13.186867 37.500591 44.405656 -27.753046 -14.690495 23.561999 -18.412098 1.985623 0.000000 0.000000 0.000000 2.841235 15.301041 -34.669026 16.906557 -26.734516 4.045219 17.410427 -35.734452 8.119628 0.000000 0.000000 0.000000 -7.125000 0.000000 0.000000 -6.837789 21.499633 -3.883183 0.000000 0.000000 0.000000 1.578176 7.097804 35.120875 -12.025598 -19.842997 -2.110979 -7.523905 26.947644 1.108314 0.000000 0.000000 0.000000 7.125000 0.000000 0.000000 15.048156 30.880194 5.356640
6.372339 15.808938 14.044633 -8.300574 -16.292288 17.186583 0.000000 0.000000 0.000000 -14.043355 2.730542 -34.414509 5.172505 13.575466 41.562761 1.323264 -15.361219 -21.759847 0.360781 -3.858743 -10.679670 0.000000 0.000000 0.000000 29.293373 -0.396056 -32.389036 -3.861143 -11.973365 35.637777 1.483127 29.844714 -11.930028 -0.033192 -1.175676 3.232303 6.254548 1.721651 -12.411231 0.127142 1.612083 -8.783829 -3.209706 0.510177 -2.141152 -30.840169 -12.782412 36.125450 43.742644 -27.361981 -13.006767 23.062153 -17.995981 2.390471 0.000000 0.000000 0.000000 2.880871 15.353969 -34.823501 16.847904 -26.656859 4.018873 17.456743 -35.477774 8.066903 0.000000 0.000000 0.000000 -7.125000 0.000000 0.000000 -6.805137 21.552057 -3.856199 0.000000 0.000000 0.000000 1.630455 7.110745 34.891858 -12.013353 -19.824669 -2.106837 -7.579115 27.124430 1.226884 0.000000 0.000000 0.000000 7.125000 0.000000 0.000000 15.024189 30.997304 5.303834
6.367258 15.807382 14.016830 -8.274716 -15.943144 17.283709 0.000000 0.000000 0.000000 -13.842805 1.909029 -34.468472 5.194624 13.599685 41.656979 1.338589 -14.947641 -21.752391 0.372830 -3.921672 -10.856467 0.000000 0.000000 0.000000 29.094790 1.184341 -32.001231 -3.870903 -11.986605 35.684595 0.990404 27.698453 -13.132079 -0.005635 -0.483267 1.328075 6.230520 1.700068 -11.721660 0.081844 1.642735 -8.818021 -3.254697 0.514194 -2.544808 -31.180782 -11.995904 33.110862 42.856301 -26.288700 -9.550875 21.661488 -17.042299 3.213227 0.000000 0.000000 0.000000 3.032106 15.183844 -35.065020 16.815492 -26.613917 4.004345 17.601775 -35.386294 8.189722 0.000000 0.000000 0.000000 -7.125000 0.000000 0.000000 -6.698153 21.417094 -3.815432 0.000000 0.000000 0.000000 1.735597 7.168040 34.830391 -12.044624 -19.871586 -2.117415 -7.495207 27.180954 1.251138 0.000000 0.000000 0.000000 7.125000 0.000000 0.000000 15.093196 31.018656 5.321723
